<svg width="143" height="105" viewBox="0 0 143 105" fill="none" xmlns="http://www.w3.org/2000/svg">
<rect x="4" y="45" width="135" height="28.3406" rx="6" fill="#5995ED" stroke="#5995ED" stroke-width="8"/>
<mask id="path-2-inside-1_1_233" fill="white">
<path d="M84.1572 0C89.8018 0.000134367 94.8012 3.64272 96.5312 9.01562C97.03 10.5647 97.2219 12.1206 97.1504 13.6279C116.479 14.8512 131.777 30.9133 131.777 50.5508V67.71C131.777 88.1445 115.212 104.71 94.7773 104.71H50.2227C29.7881 104.71 13.2227 88.1445 13.2227 67.71V50.5508C13.2227 30.9136 28.5202 14.8517 47.8486 13.6279C47.7771 12.1206 47.97 10.5647 48.4688 9.01562C50.1988 3.64272 55.1982 0.000130626 60.8428 0H84.1572Z"/>
</mask>
<path d="M84.1572 0C89.8018 0.000134367 94.8012 3.64272 96.5312 9.01562C97.03 10.5647 97.2219 12.1206 97.1504 13.6279C116.479 14.8512 131.777 30.9133 131.777 50.5508V67.71C131.777 88.1445 115.212 104.71 94.7773 104.71H50.2227C29.7881 104.71 13.2227 88.1445 13.2227 67.71V50.5508C13.2227 30.9136 28.5202 14.8517 47.8486 13.6279C47.7771 12.1206 47.97 10.5647 48.4688 9.01562C50.1988 3.64272 55.1982 0.000130626 60.8428 0H84.1572Z" fill="#D9D9D9"/>
<path d="M84.1572 0L84.1574 -8H84.1572V0ZM96.5312 9.01562L104.146 6.56371L104.146 6.5637L96.5312 9.01562ZM97.1504 13.6279L89.1594 13.2486L88.786 21.1146L96.6451 21.612L97.1504 13.6279ZM47.8486 13.6279L48.3541 21.6119L56.213 21.1144L55.8396 13.2486L47.8486 13.6279ZM48.4688 9.01562L40.8538 6.5637L40.8538 6.56371L48.4688 9.01562ZM60.8428 0L60.8428 -8L60.8426 -8L60.8428 0ZM84.1572 0L84.157 8C86.328 8.00005 88.2509 9.40103 88.9163 11.4676L96.5312 9.01562L104.146 6.5637C101.352 -2.11559 93.2755 -7.99978 84.1574 -8L84.1572 0ZM96.5312 9.01562L88.9163 11.4675C89.1166 12.0898 89.1861 12.6858 89.1594 13.2486L97.1504 13.6279L105.141 14.0073C105.258 11.5553 104.943 9.03969 104.146 6.56371L96.5312 9.01562ZM97.1504 13.6279L96.6451 21.612C111.788 22.5703 123.777 35.1628 123.777 50.5508H131.777H139.777C139.777 26.6638 121.171 7.13214 97.6557 5.6439L97.1504 13.6279ZM131.777 50.5508H123.777V67.71H131.777H139.777V50.5508H131.777ZM131.777 67.71H123.777C123.777 83.7262 110.794 96.71 94.7773 96.71V104.71V112.71C119.63 112.71 139.777 92.5628 139.777 67.71H131.777ZM94.7773 104.71V96.71H50.2227V104.71V112.71H94.7773V104.71ZM50.2227 104.71V96.71C34.2064 96.71 21.2227 83.7262 21.2227 67.71H13.2227H5.22266C5.22266 92.5628 25.3698 112.71 50.2227 112.71V104.71ZM13.2227 67.71H21.2227V50.5508H13.2227H5.22266V67.71H13.2227ZM13.2227 50.5508H21.2227C21.2227 35.1631 33.2119 22.5707 48.3541 21.6119L47.8486 13.6279L47.3431 5.64392C23.8286 7.13276 5.22266 26.6642 5.22266 50.5508H13.2227ZM47.8486 13.6279L55.8396 13.2486C55.8131 12.6892 55.8824 12.093 56.0837 11.4675L48.4688 9.01562L40.8538 6.56371C40.0576 9.0365 39.7411 11.5519 39.8576 14.0072L47.8486 13.6279ZM48.4688 9.01562L56.0837 11.4676C56.7491 9.40102 58.672 8.00005 60.843 8L60.8428 0L60.8426 -8C51.7245 -7.99979 43.6484 -2.11559 40.8538 6.5637L48.4688 9.01562ZM60.8428 0V8H84.1572V0V-8H60.8428V0Z" fill="#5995ED" mask="url(#path-2-inside-1_1_233)"/>
<circle cx="47.5" cy="51.5" r="7.5" fill="#931F1D"/>
<circle cx="97.5" cy="51.5" r="7.5" fill="#00A63E"/>
<path d="M61 68C63.5581 77.3333 80.4419 77.3333 83 68" stroke="#5995ED" stroke-width="8" stroke-linecap="round"/>
</svg>
